<svg width="24" height="24" viewBox="0 0 24 24" fill="none" xmlns="http://www.w3.org/2000/svg">
<path d="M6.34 17.5C5.62 16.8004 5.05 15.9776 4.63 15.0318C4.21 14.086 4 13.0754 4 12C4 10.9246 4.21 9.91402 4.63 8.9682C5.05 8.02238 5.62 7.19965 6.34 6.5L7.2 7.33569C6.57333 7.94464 6.08333 8.64429 5.73 9.43463C5.37667 10.225 5.2 11.0801 5.2 12C5.2 12.9199 5.37667 13.775 5.73 14.5654C6.08333 15.3557 6.57333 16.0554 7.2 16.6643L6.34 17.5ZM8.04 15.8481C7.53333 15.3557 7.13333 14.7792 6.84 14.1184C6.54667 13.4576 6.4 12.7515 6.4 12C6.4 11.2485 6.54667 10.5424 6.84 9.88163C7.13333 9.22085 7.53333 8.64429 8.04 8.15194L8.88 8.9682C8.48 9.35689 8.16667 9.81037 7.94 10.3286C7.71333 10.8469 7.6 11.404 7.6 12C7.6 12.596 7.71333 13.1531 7.94 13.6714C8.16667 14.1896 8.48 14.6431 8.88 15.0318L8.04 15.8481ZM11.2 15.4982C11.2 15.2002 11.0967 14.9055 10.89 14.614C10.6833 14.3224 10.4533 14.018 10.2 13.7005C9.94667 13.3831 9.71667 13.0527 9.51 12.7094C9.30333 12.366 9.2 12 9.2 11.6113C9.2 10.8598 9.47333 10.2185 10.02 9.68728C10.5667 9.15607 11.2267 8.89046 12 8.89046C12.7733 8.89046 13.4333 9.15607 13.98 9.68728C14.5267 10.2185 14.8 10.8598 14.8 11.6113C14.8 12 14.6967 12.366 14.49 12.7094C14.2833 13.0527 14.0533 13.3831 13.8 13.7005C13.5467 14.018 13.3167 14.3224 13.11 14.614C12.9033 14.9055 12.8 15.2002 12.8 15.4982H11.2ZM11.2 17.4417V16.2756H12.8V17.4417H11.2ZM15.96 15.8481L15.12 15.0318C15.52 14.6431 15.8333 14.1896 16.06 13.6714C16.2867 13.1531 16.4 12.596 16.4 12C16.4 11.404 16.2867 10.8469 16.06 10.3286C15.8333 9.81037 15.52 9.35689 15.12 8.9682L15.96 8.15194C16.4667 8.64429 16.8667 9.22085 17.16 9.88163C17.4533 10.5424 17.6 11.2485 17.6 12C17.6 12.7515 17.4533 13.4576 17.16 14.1184C16.8667 14.7792 16.4667 15.3557 15.96 15.8481ZM17.66 17.5L16.8 16.6643C17.4267 16.0554 17.9167 15.3557 18.27 14.5654C18.6233 13.775 18.8 12.9199 18.8 12C18.8 11.0801 18.6233 10.225 18.27 9.43463C17.9167 8.64429 17.4267 7.94464 16.8 7.33569L17.66 6.5C18.38 7.19965 18.95 8.02238 19.37 8.9682C19.79 9.91402 20 10.9246 20 12C20 13.0754 19.79 14.086 19.37 15.0318C18.95 15.9776 18.38 16.8004 17.66 17.5Z" fill="#4A4A4B"/>
</svg>
