<svg width="17" height="15" viewBox="0 0 17 15" fill="none" xmlns="http://www.w3.org/2000/svg">
<path d="M4.77308 15C2.16155 15.0028 0.244762 13.3202 0.0247626 11.1212C-0.110325 9.77036 0.306999 8.59368 1.28397 7.63163C3.44874 5.49996 5.62992 3.38382 7.80579 1.2625C8.08031 0.995159 8.42912 0.98198 8.6718 1.22296C8.90868 1.45783 8.8889 1.80424 8.61776 2.06923C6.43852 4.19573 4.25396 6.31657 2.08147 8.44919C1.17735 9.33687 0.882567 10.4147 1.23524 11.613C1.58406 12.7982 2.41243 13.5569 3.6451 13.8398C4.79093 14.1029 5.82773 13.8257 6.66141 13.0189C9.51416 10.2599 12.3515 7.48572 15.1849 4.70829C15.8276 4.07853 15.9964 3.30945 15.6645 2.48107C15.335 1.65881 14.6779 1.22108 13.7771 1.16884C13.1702 1.13354 12.6361 1.34299 12.2053 1.76282C9.93824 3.9698 7.67456 6.18008 5.41233 8.39176C5.01238 8.78289 5.01093 9.36041 5.39304 9.73647C5.78334 10.1205 6.37724 10.1107 6.79746 9.70212C8.21974 8.31834 9.63623 6.92939 11.0628 5.55032C11.1748 5.44207 11.3378 5.35452 11.4917 5.32251C11.7315 5.27262 11.925 5.39264 12.048 5.60068C12.1667 5.80119 12.1421 6.0417 11.9906 6.22856C11.9646 6.26056 11.9346 6.29022 11.9047 6.31893C10.4675 7.72106 9.03461 9.12743 7.59158 10.5244C6.45395 11.6258 4.56177 11.2012 4.0658 9.72941C3.80576 8.95704 3.95291 8.23221 4.54102 7.65375C6.83847 5.39312 9.13833 3.13436 11.4686 0.906672C12.4142 0.00157059 13.5904 -0.221998 14.8352 0.21855C16.0794 0.659099 16.8031 1.56467 16.9715 2.85102C17.1075 3.89261 16.7529 4.78595 15.9959 5.52585C14.2485 7.23297 12.4981 8.93727 10.7492 10.6425C9.70425 11.6615 8.65829 12.6805 7.61378 13.6995C6.73571 14.5566 5.67527 14.9892 4.77356 14.9995L4.77308 15Z" fill="#9F9F9F"/>
</svg>
