<svg width="48" height="48" viewBox="0 0 48 48" fill="none" xmlns="http://www.w3.org/2000/svg">
<rect width="48" height="48" rx="6.66666" fill="#EFEFEF"/>
<rect x="0.1" y="0.1" width="47.8" height="47.8" rx="6.56666" stroke="black" stroke-opacity="0.25" stroke-width="0.2"/>
<path d="M23.998 9.99951C25.8546 9.99951 27.635 10.737 28.9478 12.0498C30.2605 13.3625 30.998 15.143 30.998 16.9995C30.998 18.856 30.2605 20.6365 28.9478 21.9493C27.635 23.262 25.8546 23.9995 23.998 23.9995C22.1415 23.9995 20.3611 23.262 19.0483 21.9493C17.7355 20.6365 16.998 18.856 16.998 16.9995C16.998 15.143 17.7355 13.3625 19.0483 12.0498C20.3611 10.737 22.1415 9.99951 23.998 9.99951ZM23.998 27.4995C31.733 27.4995 37.998 30.632 37.998 34.4995V37.9995H9.99805V34.4995C9.99805 30.632 16.263 27.4995 23.998 27.4995Z" fill="#888181"/>
</svg>
