<svg width="20" height="21" viewBox="0 0 20 21" fill="none" xmlns="http://www.w3.org/2000/svg">
<path d="M8.33172 16.0413L8.34079 12.0248L11.554 12.0321L11.5449 16.0486C11.5439 16.4904 11.9046 16.8527 12.3464 16.8537L14.7563 16.8591C15.1981 16.8601 15.5604 16.4995 15.5614 16.0576L15.5741 10.4346L16.9397 10.4377C17.3092 10.4385 17.487 9.98101 17.2064 9.73939L10.5045 3.67539C10.1998 3.40158 9.73392 3.40053 9.42805 3.67296L2.69883 9.70661C2.42516 9.94698 2.59282 10.4052 2.96234 10.4061L4.32794 10.4092L4.31523 16.0322C4.31424 16.474 4.6749 16.8363 5.11672 16.8373L7.52661 16.8428C7.96842 16.8438 8.33072 16.4831 8.33172 16.0413Z" fill="#006172"/>
</svg>
