<svg width="18" height="20" viewBox="0 0 18 20" fill="none" xmlns="http://www.w3.org/2000/svg">
<path d="M3.7952 10.573L7.98974 10.5825C8.37424 10.5833 8.68965 10.2226 8.69064 9.78076L8.70517 3.35439C8.70616 2.91257 8.39239 2.55038 8.00789 2.54951L3.81335 2.54003C3.42885 2.53916 3.11344 2.89994 3.11244 3.34175L3.09792 9.76812C3.09692 10.2099 3.4107 10.5721 3.7952 10.573ZM3.78067 16.9994L7.97522 17.0088C8.35972 17.0097 8.67512 16.6489 8.67612 16.2071L8.68338 12.9939C8.68438 12.5521 8.37061 12.1899 7.98611 12.1891L3.79157 12.1796C3.40707 12.1787 3.09166 12.5395 3.09066 12.9813L3.0834 16.1945C3.0824 16.6363 3.39617 16.9985 3.78067 16.9994ZM10.7716 17.0152L14.9661 17.0246C15.3506 17.0255 15.666 16.6647 15.667 16.2229L15.6815 9.79656C15.6825 9.35474 15.3688 8.99255 14.9843 8.99168L10.7897 8.9822C10.4052 8.98133 10.0898 9.34211 10.0888 9.78392L10.0743 16.2103C10.0733 16.6521 10.3871 17.0143 10.7716 17.0152ZM10.1033 3.35755L10.0961 6.57073C10.0951 7.01255 10.4089 7.37474 10.7934 7.37561L14.9879 7.38509C15.3724 7.38596 15.6878 7.02518 15.6888 6.58337L15.6961 3.37018C15.6971 2.92837 15.3833 2.56618 14.9988 2.56531L10.8043 2.55583C10.4198 2.55496 10.1043 2.91573 10.1033 3.35755Z" fill="#7E7E7E"/>
</svg>
