<svg width="17" height="20" viewBox="0 0 17 20" fill="none" xmlns="http://www.w3.org/2000/svg">
<g clip-path="url(#clip0_351_1375)">
<path d="M4.55144 7.70343L4.69017 7.70375C5.22432 7.70495 5.6602 8.21202 5.6588 8.83056L5.64609 14.4536C5.6447 15.0722 5.20653 15.5773 4.67238 15.5761L4.53365 15.5757C3.9995 15.5745 3.56362 15.0675 3.56502 14.4489L3.57773 8.82585C3.57912 8.20731 4.01729 7.70223 4.55144 7.70343ZM8.44373 4.33837C8.97788 4.33957 9.41376 4.84664 9.41236 5.46517L9.39203 14.4621C9.39063 15.0806 8.95246 15.5857 8.41832 15.5845C7.88418 15.5833 7.4483 15.0762 7.44969 14.4577L7.47002 5.46079C7.47142 4.84225 7.90959 4.33716 8.44373 4.33837ZM12.3139 10.7735C12.848 10.7747 13.2839 11.2818 13.2825 11.9003L13.2767 14.4709C13.2753 15.0894 12.8371 15.5945 12.303 15.5933C11.7689 15.5921 11.333 15.085 11.3344 14.4665L11.3402 11.8959C11.3416 11.2774 11.7797 10.7723 12.3139 10.7735Z" fill="#7E7E7E"/>
</g>
<defs>
<clipPath id="clip0_351_1375">
<rect width="16.6486" height="19.2792" fill="white" transform="translate(0.128906 0.303101) rotate(0.12947)"/>
</clipPath>
</defs>
</svg>
