<svg width="18" height="19" viewBox="0 0 18 19" fill="none" xmlns="http://www.w3.org/2000/svg">
<path d="M17.4894 11.16C16.4827 11.6134 15.4761 12.066 14.4701 12.5201C10.3908 14.361 6.31136 16.202 2.23316 18.0456C1.81173 18.2359 1.41081 18.2285 1.04642 17.9355C0.723559 17.6759 0.603641 17.3238 0.68049 16.9164C0.703952 16.7926 0.755317 16.669 0.817631 16.5588C1.85974 14.7054 2.90638 12.8542 3.94785 11.0001C4.00402 10.8999 4.07222 10.8648 4.17984 10.8515C6.40345 10.5746 8.62621 10.2946 10.8493 10.0149C10.9158 10.0066 10.9815 9.99395 11.0487 9.95412C10.9959 9.93919 10.9436 9.92196 10.8904 9.91001C8.69687 9.39985 6.50339 8.88837 4.30899 8.38216C4.18256 8.35292 4.11448 8.29936 4.06143 8.17779C3.22483 6.26078 2.38246 4.34648 1.54178 2.43127C1.28324 1.84201 1.46111 1.2546 1.99014 0.98537C2.33987 0.807504 2.68896 0.828257 3.02927 1.02463C4.62779 1.94789 6.22704 2.86986 7.82486 3.79374C11.0505 5.65863 14.2768 7.52487 17.5038 9.38983C17.5171 9.39746 17.5361 9.39542 17.5526 9.39758C17.6389 9.4929 17.7254 9.58858 17.8117 9.68391C17.8421 9.75884 17.8757 9.83227 17.9031 9.90805C18.035 10.2741 17.9426 10.607 17.7497 10.9239L17.4891 11.1597L17.4894 11.16Z" fill="#36AFFA"/>
</svg>
